<svg xmlns="http://www.w3.org/2000/svg" width="673.307" height="715.297"><path d="M383.298 0c-16.52 0-33.033.596-43.375 1.813-50.883 5.987-95.08 19.012-138.47 40.78-37.068 18.598-66.542 40.23-96.03 70.5-58.29 59.834-91.99 129.551-102.438 211.876-3.955 31.166-3.983 74.438-.062 105.062 11.798 92.146 52.261 163.202 123.5 216.844 16.621 12.516 28.063 19.671 47.562 29.75 40.69 21.032 86.117 33.843 133.938 37.75 14.755 1.205 46.383 1.233 61.125.063 55.34-4.393 111.377-18.908 168.28-43.625 12.712-5.522 46.835-22.33 54.75-26.97l4.282-2.5-1.875-4.687c-4.714-11.747-8.197-19.729-8.906-20.437-.425-.425-9.53 3.713-20.219 9.187-22.675 11.615-37.646 18.164-58.437 25.563-76.746 27.308-159.68 32.643-231.5 14.937-82.677-20.381-146.741-70.788-183.594-144.437-17.624-35.222-27.915-72.755-32.469-118.5-1.509-15.155-1.503-54.106 0-70.5 5.236-57.108 22.386-107.35 51.938-152.188 16.129-24.472 45.543-56.72 68.625-75.187 50.816-40.659 107.987-62.936 179-69.719 18.319-1.75 55.533-1.455 71 .563C485.593 43.197 530.689 63.58 567.266 98c29.773 28.017 52.285 67.448 62.188 108.969 14.243 59.714 5.918 134.178-21.5 192.156-26.331 55.68-69.3 93.682-106.031 93.813-10.89.038-17.436-1.972-24.47-7.532-13.568-10.725-16.125-27.722-9.405-62.437.851-4.4 9.343-42.425 18.875-84.5 9.531-42.075 19.193-85.5 21.468-96.5 5.58-26.97 10.29-45.93 14.47-58.313 2.522-7.474 3.14-10.408 2.25-10.75-.676-.259-10.44-.368-21.688-.219l-20.438.282-7.375 9.25c-4.251 5.332-8.116 9.25-9.125 9.25-.962 0-6.438-2.212-12.156-4.906-13.27-6.253-29.102-11.476-43.25-14.282-13.11-2.6-38.921-3.083-52.156-.969-20.65 3.3-40.261 9.663-59.157 19.188-33.87 17.074-63.016 42.793-84.28 74.375-27.03 40.142-40.39 81.654-41.75 129.625-1.157 40.77 6.123 71.414 23.25 97.688 17.124 26.271 41.15 41.074 71.78 44.25 36.26 3.76 75.411-14.854 118.344-56.313 7.828-7.56 13.866-12.647 14.656-12.344.962.37 1.519 3.731 1.97 11.844 1.816 32.738 16.188 51.576 43.75 57.438 10.048 2.137 33.818 1.365 46.218-1.5 42.894-9.911 84.667-37.812 116.906-78.094 19.795-24.734 38.55-60.235 48.188-91.188 25.519-81.953 16.943-174.556-22.313-240.781-18.135-30.594-43.057-56.794-73.062-76.844-11.645-7.78-36.548-20.977-47.5-25.156-29.835-11.384-56.446-17.863-89.157-21.688C416.361.597 399.818 0 383.298 0zm6.843 202c5.852.03 10.73.26 12.282.719 1.74.514 7.635 7.761 19.406 23.844 9.298 12.704 17.106 24.099 17.344 25.343.573 3-33.494 177.487-35.157 180.063-.71 1.1-5.21 6.402-10 11.781-20.985 23.566-43.463 38.126-65.343 42.313-4.073.779-10.849 1.345-15.063 1.28-35.923-.55-58.595-21.203-67.344-61.374-2.571-11.808-3.56-42.44-1.906-59.063 4.029-40.51 15.744-75.377 34.906-103.875 8-11.896 24.759-29.735 35.282-37.562 13.5-10.043 32.315-18.491 49.375-22.156 4.038-.868 16.466-1.363 26.218-1.313z" fill="#020202"/></svg>